<?xml version="1.0" standalone="no"?>
<!DOCTYPE svg PUBLIC "-//W3C//DTD SVG 20010904//EN"
 "http://www.w3.org/TR/2001/REC-SVG-20010904/DTD/svg10.dtd">
<svg version="1.0" xmlns="http://www.w3.org/2000/svg"
 width="1325.000000pt" height="1325.000000pt" viewBox="0 0 1325.000000 1325.000000"
 preserveAspectRatio="xMidYMid meet">
<metadata>
Created by potrace 1.11, written by Peter Selinger 2001-2013
</metadata>
<g transform="translate(0.000000,1325.000000) scale(0.100000,-0.100000)"
fill="#000000" stroke="none">
<path d="M6815 12213 c-182 -25 -330 -133 -385 -280 -18 -48 -22 -79 -21 -178
0 -102 4 -131 26 -192 14 -40 25 -79 25 -87 0 -8 6 -16 13 -19 6 -2 9 -7 6
-11 -10 -11 -158 41 -203 71 -38 24 -44 25 -132 19 -159 -12 -369 -79 -554
-178 -137 -72 -285 -171 -354 -237 -34 -31 -96 -88 -139 -126 -47 -41 -118
-121 -177 -199 -80 -107 -121 -175 -220 -369 -139 -271 -136 -261 -149 -542
-12 -250 -1 -400 50 -730 42 -268 132 -537 249 -744 21 -37 55 -112 75 -167
21 -54 48 -119 62 -144 29 -54 26 -42 -21 72 -35 85 -47 130 -26 98 5 -8 10
-10 10 -5 0 6 -7 21 -16 34 -20 28 -28 60 -60 251 -32 184 -43 475 -24 612 16
114 25 135 34 77 14 -96 40 -199 46 -189 10 16 76 -189 94 -293 10 -53 15
-141 15 -220 -2 -139 6 -170 58 -234 39 -48 144 -118 268 -180 72 -35 132 -68
133 -74 10 -27 -140 -205 -264 -312 -162 -140 -358 -375 -427 -512 -92 -183
-117 -446 -65 -687 5 -27 13 -48 16 -48 4 0 8 42 9 93 1 69 8 113 28 177 33
104 83 214 124 274 17 24 31 47 31 50 0 18 129 181 186 236 176 168 361 281
338 208 -3 -13 -12 -30 -18 -38 -50 -62 -109 -181 -144 -290 -53 -164 -72
-277 -72 -430 0 -170 12 -240 70 -440 4 -14 5 22 2 80 -4 85 0 122 16 188 24
93 68 192 110 244 l28 36 32 -32 c44 -45 92 -152 103 -232 5 -37 14 -73 19
-79 6 -7 -1 -47 -20 -113 -35 -120 -69 -280 -109 -505 -20 -114 -37 -179 -56
-216 -17 -35 -24 -62 -21 -77 5 -20 1 -26 -19 -34 -38 -14 -78 -12 -185 10
-115 24 -220 26 -260 5 -17 -9 -30 -20 -30 -25 0 -6 -34 -10 -78 -10 -86 0
-166 -19 -204 -50 -14 -11 -45 -58 -67 -104 l-42 -84 -87 46 c-95 50 -396 226
-907 532 -181 108 -445 264 -585 345 -140 82 -284 167 -320 190 -36 24 -94 58
-130 78 -36 19 -70 45 -77 57 -14 29 -34 41 -55 34 -10 -3 -19 2 -23 15 -21
67 -102 115 -182 109 -44 -4 -60 -11 -88 -38 -37 -36 -75 -122 -75 -168 0 -44
46 -101 103 -128 29 -13 61 -24 72 -24 11 0 28 -9 38 -20 9 -11 23 -17 30 -14
8 3 20 -2 27 -11 7 -8 16 -15 20 -15 16 0 778 -471 1075 -665 66 -43 185 -119
265 -168 80 -50 163 -102 185 -117 22 -15 117 -71 210 -125 205 -117 323 -193
366 -234 18 -17 36 -31 40 -31 5 0 9 -21 9 -47 0 -26 9 -65 20 -87 16 -34 31
-47 91 -75 95 -46 161 -52 224 -20 l47 23 38 -22 c22 -12 48 -22 59 -22 12 0
21 -2 21 -5 0 -2 -100 -179 -221 -392 -351 -615 -419 -735 -419 -739 0 -8 124
-94 136 -94 6 0 125 182 263 404 l253 404 81 -56 c45 -30 83 -56 84 -56 1 -1
-5 -57 -13 -126 -8 -69 -21 -215 -28 -325 -8 -118 -14 -169 -15 -126 0 43 -5
71 -10 65 -8 -8 -23 -276 -37 -669 -8 -216 6 -292 81 -440 59 -119 58 -114 84
-395 41 -452 48 -770 21 -965 -14 -95 -23 -115 -54 -115 -28 0 -52 -25 -60
-65 -4 -19 -20 -39 -41 -54 l-35 -23 -232 11 c-277 13 -590 13 -708 0 -188
-21 -317 -29 -578 -35 -258 -7 -272 -8 -255 -24 21 -20 262 -70 333 -70 25 0
94 9 155 20 60 10 111 17 113 16 3 -3 -55 -20 -123 -35 -31 -7 -13 -9 80 -9
66 1 158 -4 205 -10 170 -24 418 -52 558 -64 78 -6 142 -15 142 -19 0 -7 -31
-20 -94 -40 -21 -6 -59 -26 -83 -43 -49 -34 -50 -48 -10 -109 20 -32 28 -36
91 -45 42 -7 76 -18 90 -30 28 -26 254 -98 506 -162 113 -28 247 -64 297 -81
112 -35 358 -85 468 -94 44 -4 159 -17 255 -30 96 -13 245 -31 330 -40 85 -9
205 -22 265 -30 196 -24 201 -24 620 21 319 34 521 61 928 125 104 16 202 29
218 29 16 0 78 -15 137 -34 59 -19 123 -36 143 -39 38 -6 130 -44 139 -58 9
-13 24 3 35 36 12 35 15 35 223 60 142 16 175 26 170 53 -4 23 -64 38 -211 53
l-127 12 0 63 c0 56 2 62 23 67 34 8 212 34 402 57 94 11 213 27 265 36 63 9
151 14 260 12 331 -4 1070 31 1070 51 0 3 -37 14 -82 24 -132 29 -322 81 -311
84 5 2 131 -23 279 -56 148 -32 284 -62 303 -66 31 -7 33 -5 29 13 -3 11 -103
181 -223 377 -119 197 -219 363 -221 370 -3 6 -107 86 -232 177 -727 528
-1941 1409 -2087 1514 l-170 122 -114 289 c-63 158 -113 295 -112 303 10 60 2
92 -58 220 -35 74 -79 159 -98 189 -31 48 -34 58 -25 91 12 48 0 80 -31 80
-24 0 -24 1 -20 73 3 39 21 132 39 206 19 73 34 146 34 162 0 24 4 29 24 29
13 0 38 14 56 30 30 28 31 32 18 53 -23 34 -78 61 -259 128 l-166 61 -6 205
c-4 113 -5 209 -1 214 3 5 6 143 8 306 l3 298 41 3 c23 2 69 -4 103 -12 67
-18 224 -21 262 -7 19 8 32 29 55 88 16 43 33 94 37 113 11 53 32 88 57 95 13
4 33 19 46 34 l23 26 -5 -27 c-4 -15 -2 -29 3 -33 20 -12 81 205 81 292 0 51
11 65 55 72 33 5 39 11 60 62 13 31 37 119 53 195 28 131 30 137 41 109 24
-60 33 -141 27 -250 l-6 -110 40 83 c56 117 65 147 97 332 24 144 28 191 28
365 0 151 -5 225 -19 304 -51 286 -223 739 -340 899 -25 34 -46 65 -46 69 0
12 67 -57 158 -161 48 -55 118 -134 156 -175 134 -147 311 -394 371 -519 25
-51 48 -104 51 -117 3 -14 10 -23 14 -20 5 3 17 -20 27 -51 9 -31 19 -52 20
-47 2 6 -17 66 -43 134 -26 68 -54 151 -64 184 -37 126 -123 354 -167 440 -50
97 -259 476 -349 633 -139 240 -361 730 -434 958 -17 54 -35 103 -40 109 -4 5
-16 39 -25 75 -10 36 -21 70 -26 75 -10 14 -81 228 -119 360 -46 161 -151 371
-233 466 -190 222 -418 326 -752 344 -93 5 -133 3 -178 -9 -59 -16 -129 -21
-140 -10 -15 15 348 246 447 286 28 11 74 20 101 21 28 0 41 3 30 5 l-20 5 20
8 c37 14 -169 9 -261 -6 -148 -26 -200 -46 -270 -106 -66 -57 -88 -94 -99
-172 -7 -47 -18 -60 -28 -32 -4 8 -9 47 -13 87 -7 83 17 191 64 283 58 115
215 291 297 334 22 11 34 20 26 21 -11 0 -9 4 5 15 18 14 18 14 -8 15 -14 0
-32 2 -40 3 -7 2 -26 2 -43 0z m148 -770 c-7 -2 -19 -2 -25 0 -7 3 -2 5 12 5
14 0 19 -2 13 -5z m617 -248 c13 -14 21 -25 18 -25 -2 0 -15 11 -28 25 -13 14
-21 25 -18 25 2 0 15 -11 28 -25z m-1317 -1551 c59 -41 107 -78 107 -81 0 -3
-27 -31 -60 -61 -58 -52 -61 -56 -58 -98 2 -24 5 -44 7 -44 3 0 42 36 87 80
l82 80 36 -21 c20 -11 40 -26 44 -33 4 -6 18 -16 31 -22 22 -9 18 -13 -60 -59
-90 -53 -138 -92 -170 -136 -29 -41 -12 -36 53 14 50 39 137 84 196 102 19 5
22 3 23 -22 2 -58 10 -90 45 -161 35 -73 56 -94 75 -75 6 6 3 18 -10 34 -10
13 -25 45 -32 69 -7 25 -16 49 -21 55 -12 14 -10 69 4 83 7 7 21 12 31 12 17
0 19 -5 14 -34 -4 -27 -2 -35 12 -39 11 -3 21 -18 25 -40 9 -46 28 -61 69 -53
25 5 37 2 49 -11 40 -47 25 -77 -44 -88 -24 -4 -54 -13 -68 -20 l-25 -13 29
-11 c42 -17 141 -9 165 13 19 17 20 17 36 -8 9 -14 13 -31 9 -38 -4 -7 -4 -10
1 -6 13 12 94 -133 94 -167 -1 -33 26 -153 36 -164 9 -8 -5 107 -16 136 -8 21
-7 22 12 10 19 -11 27 -32 48 -122 l9 -40 1 47 c2 115 -72 420 -148 608 -16
38 -25 72 -20 77 4 4 9 30 11 58 l3 50 -37 -3 -36 -3 -58 103 c-31 57 -66 116
-77 131 -37 54 -26 52 190 -37 62 -25 172 -62 245 -81 73 -20 146 -41 163 -47
40 -17 97 -69 154 -143 25 -33 54 -68 65 -79 18 -18 18 -17 12 15 -6 33 -6 33
18 -11 26 -46 27 -62 11 -190 -4 -29 -3 -31 5 -12 13 30 39 185 33 195 -2 4
-1 32 2 61 7 52 10 56 71 105 88 71 128 93 161 89 34 -4 40 -25 42 -153 1
-112 -14 -175 -81 -325 -27 -63 -59 -138 -69 -167 -32 -88 -84 -164 -186 -273
-54 -58 -125 -140 -156 -183 -63 -85 -252 -274 -338 -338 -30 -22 -72 -58 -94
-79 -22 -21 -53 -45 -70 -53 -46 -23 -239 -84 -340 -108 -49 -11 -102 -28
-117 -37 -25 -15 -41 -14 -225 12 -109 15 -259 43 -333 61 -236 59 -531 169
-665 249 -33 19 -77 44 -97 55 -20 12 -48 36 -62 54 -46 60 -55 103 -53 259 1
85 -4 166 -12 202 -15 68 -5 90 27 58 11 -11 26 -22 33 -25 8 -3 5 -6 -8 -6
-47 -2 -21 -16 29 -17 29 0 76 -3 103 -7 49 -8 48 -7 -20 16 -38 13 -89 33
-112 45 -23 12 -48 19 -56 16 -7 -2 -14 1 -14 8 0 7 -18 61 -40 118 -36 92
-50 135 -69 215 -3 11 4 4 15 -15 11 -19 20 -47 21 -62 0 -16 5 -28 10 -28 6
0 10 7 10 15 0 24 80 105 104 105 50 0 66 -11 66 -45 0 -36 31 -144 62 -217
14 -33 26 -48 39 -48 18 0 18 1 -1 33 -25 41 -25 79 -1 101 18 17 19 16 26
-12 3 -16 17 -40 30 -52 24 -23 25 -23 45 -5 13 12 20 31 20 57 0 35 2 38 19
29 34 -19 52 -73 42 -127 -10 -51 -29 -72 -73 -81 -15 -3 -25 -10 -21 -16 3
-5 0 -8 -8 -5 -8 3 -14 11 -14 19 0 8 -12 15 -30 17 l-30 3 32 -31 c44 -40 75
-46 114 -24 56 33 73 66 73 142 0 37 -5 84 -11 104 -9 31 -8 36 4 31 12 -5 13
-2 5 14 -17 31 -176 108 -312 150 l-45 13 80 -5 c44 -2 91 -7 105 -10 l25 -6
-25 12 c-14 7 -72 13 -130 15 -112 4 -193 18 -208 37 -13 15 10 139 25 144 7
3 74 -29 150 -69 180 -96 216 -112 249 -105 24 4 40 -8 128 -91 55 -53 129
-125 164 -161 35 -37 60 -60 56 -52 -4 7 10 2 32 -12 21 -15 40 -25 42 -23 2
2 -4 18 -13 35 -26 51 -8 54 55 10 32 -23 64 -39 69 -38 6 2 -6 29 -27 59 -35
51 -46 74 -74 155 -6 17 -27 68 -46 115 -49 120 -92 250 -83 250 16 0 187
-187 259 -282 75 -100 162 -235 162 -251 0 -6 25 -61 56 -124 37 -76 66 -155
88 -241 l33 -126 6 63 c4 37 2 81 -4 107 -16 63 -5 65 25 6 14 -28 31 -54 37
-57 6 -4 23 -33 38 -64 39 -83 42 -86 53 -70 8 11 9 10 5 -2 -3 -9 6 -50 19
-90 66 -199 -38 253 -131 571 -35 118 -62 216 -60 218 1 2 11 -20 20 -48 9
-28 19 -49 21 -47 2 2 -6 32 -18 65 -15 43 -25 58 -31 49 -6 -8 -7 -6 -3 7 6
17 -58 196 -175 491 -21 55 -39 104 -39 108 0 5 26 -12 58 -38 31 -25 105 -80
165 -121z m-1154 -13 c33 -43 92 -116 130 -162 39 -45 69 -84 68 -85 -1 -2
-50 14 -107 35 -58 21 -129 45 -159 52 -29 7 -56 20 -59 27 -6 17 47 212 59
212 4 0 35 -35 68 -79z m562 -58 c13 -16 12 -17 -3 -4 -10 7 -18 15 -18 17 0
8 8 3 21 -13z m1959 -193 c20 -40 27 -72 12 -54 -11 12 -43 94 -37 94 2 0 14
-18 25 -40z m-850 -100 c0 -5 -7 -10 -15 -10 -8 0 -15 5 -15 10 0 6 7 10 15
10 8 0 15 -4 15 -10z m-1536 -116 c9 -3 16 -17 16 -29 0 -27 -44 -67 -66 -58
-22 8 -17 60 8 77 26 19 22 18 42 10z m93 -120 c-9 -9 -28 6 -21 18 4 6 10 6
17 -1 6 -6 8 -13 4 -17z m13 -24 c0 -5 -4 -10 -10 -10 -5 0 -10 5 -10 10 0 6
5 10 10 10 6 0 10 -4 10 -10z m2005 -672 c-73 -87 -107 -119 -122 -113 -9 3
-14 7 -12 8 2 2 36 33 76 70 78 73 101 86 58 35z m468 -240 c77 -127 137 -240
137 -258 0 -23 -36 -8 -47 20 -6 17 -18 30 -26 30 -9 0 -24 30 -41 81 -14 45
-44 117 -66 161 -22 43 -40 81 -40 83 0 15 15 -7 83 -117z m-569 -58 c9 -106
38 -196 81 -245 19 -22 35 -34 35 -26 0 11 3 11 15 1 8 -7 15 -21 15 -30 0
-26 -77 -103 -95 -96 -22 8 -18 60 5 81 13 12 17 22 11 28 -14 14 -90 -31
-226 -133 -66 -50 -140 -97 -165 -106 -25 -9 -53 -20 -62 -25 -14 -7 -16 -4
-11 26 9 59 -19 57 -83 -6 -62 -61 -74 -59 -82 19 -5 60 21 125 97 235 65 94
106 132 221 203 52 32 124 80 160 106 36 26 68 48 71 48 3 0 9 -36 13 -80z
m613 -215 c1 -5 -10 -18 -26 -27 -25 -14 -29 -14 -24 -2 4 10 -2 17 -16 21
-11 3 -18 9 -16 14 8 11 78 6 82 -6z m-238 -172 c-28 -38 -71 -109 -95 -160
l-44 -92 -58 -16 c-31 -9 -81 -23 -110 -31 -39 -12 -56 -22 -65 -41 l-11 -26
-102 6 c-146 8 -214 -16 -214 -78 0 -21 -5 -25 -27 -25 -36 1 -172 18 -194 25
-18 6 -35 65 -20 74 5 3 11 15 13 26 2 11 10 18 19 16 8 -2 21 -5 30 -8 9 -3
36 15 67 45 56 54 76 59 109 29 24 -22 25 -22 40 7 9 17 12 16 32 -13 12 -17
30 -31 39 -31 9 0 39 16 66 35 61 43 70 44 62 4 -5 -28 -4 -30 17 -23 57 17
86 34 92 54 5 17 12 20 31 16 18 -5 28 1 46 27 30 43 83 89 133 115 22 11 60
35 84 54 62 46 105 78 108 78 1 0 -20 -30 -48 -67z m-1737 -108 c15 -37 33
-75 40 -83 7 -8 11 -27 10 -43 -3 -21 6 -39 35 -71 22 -24 54 -62 72 -85 63
-82 72 -30 11 62 -21 32 -37 61 -35 63 9 9 65 -11 65 -23 0 -8 16 -31 35 -52
19 -21 35 -42 35 -46 0 -5 20 8 44 27 56 47 69 46 61 -1 -4 -21 -9 -45 -11
-55 -7 -24 7 -28 57 -16 62 15 69 25 37 53 -32 27 -36 45 -10 45 38 0 64 -14
78 -42 15 -28 16 -29 39 -14 26 17 85 22 85 7 0 -5 -7 -14 -15 -21 -8 -7 -15
-23 -15 -36 0 -22 -4 -24 -47 -23 -27 0 -115 -13 -198 -30 -82 -17 -155 -31
-162 -31 -6 0 -13 9 -15 21 -2 16 -23 29 -87 55 -127 51 -147 86 -157 283 -8
156 2 168 48 56z m453 -14 c3 -5 1 -12 -5 -16 -5 -3 -10 1 -10 9 0 18 6 21 15
7z m235 -201 c0 -5 -4 -10 -10 -10 -5 0 -10 5 -10 10 0 6 5 10 10 10 6 0 10
-4 10 -10z m90 6 c0 -3 -4 -8 -10 -11 -5 -3 -10 -1 -10 4 0 6 5 11 10 11 6 0
10 -2 10 -4z m-35 -75 c8 -26 -5 -73 -18 -68 -12 4 -28 67 -21 79 9 15 33 8
39 -11z m-748 -56 c29 -19 59 -35 68 -35 23 0 30 -28 11 -49 -9 -10 -16 -23
-16 -30 0 -7 -14 -1 -33 13 -83 63 -167 -3 -167 -130 0 -52 -16 -56 -39 -8
-28 56 18 221 71 258 32 23 47 20 105 -19z m3 -125 c6 -11 7 -20 2 -20 -4 0
-23 -14 -40 -31 l-32 -31 0 25 c0 64 46 101 70 57z m-3647 -376 c42 -22 77
-54 88 -82 7 -19 2 -29 -31 -64 -22 -22 -38 -34 -34 -25 10 27 -51 57 -119 57
-76 0 -97 -12 -97 -53 0 -49 33 -94 79 -108 35 -10 42 -9 69 10 l30 21 -11
-36 c-11 -36 -11 -36 -59 -32 -76 8 -148 76 -148 140 0 13 15 52 33 87 47 94
120 125 200 85z m157 -129 c0 -14 -85 -84 -102 -85 -18 0 -5 31 26 64 34 37
76 48 76 21z m4654 -354 c4 -5 12 -45 20 -88 27 -157 56 -242 97 -290 22 -24
39 -50 39 -56 -1 -33 -67 -147 -120 -207 -12 -14 -51 -62 -86 -106 -52 -67
-71 -83 -102 -91 -49 -13 -66 -6 -132 56 -30 29 -66 58 -80 66 -35 18 -130 34
-213 34 -69 1 -112 14 -102 32 14 21 128 89 151 89 14 0 24 6 24 15 0 8 25 26
55 40 42 20 61 37 81 71 15 25 39 57 53 72 15 15 40 49 56 76 30 52 125 182
185 254 33 40 62 53 74 33z m-950 -307 c22 -8 126 -219 126 -253 -1 -21 -5
-15 -23 27 -36 85 -127 187 -127 141 0 -5 -10 -9 -22 -7 -18 2 -23 -4 -31 -37
-8 -38 -4 -129 10 -197 4 -22 3 -29 -5 -24 -13 8 -15 -1 -13 -59 2 -67 -15
-21 -43 116 -29 143 -31 165 -13 172 9 3 9 9 -1 27 -9 15 -10 20 -2 15 7 -4
16 -1 21 6 37 62 82 89 123 73z m1978 -1051 c26 -23 22 -39 -16 -62 -60 -37
-86 -1 -38 52 30 32 30 32 54 10z m-2248 -150 c40 -79 264 -190 551 -276 188
-57 239 -67 325 -67 72 0 93 -13 41 -25 -42 -9 -260 13 -347 35 -42 11 -101
31 -132 44 -31 14 -93 39 -137 56 -98 39 -246 122 -297 168 -27 25 -38 42 -38
63 0 37 15 37 34 2z m-696 -19 c12 -4 22 -12 22 -19 0 -6 -136 -230 -303 -496
-403 -644 -419 -669 -426 -669 -3 0 -19 10 -35 23 l-29 23 18 35 c10 19 82
133 160 254 176 273 278 438 401 653 53 92 103 175 111 185 17 18 42 21 81 11z
m26 -132 c4 -7 -4 -67 -41 -305 l-8 -49 -78 51 -77 51 23 37 c48 75 128 198
139 210 12 15 34 17 42 5z m1774 -88 c46 -32 11 -101 -68 -134 -27 -11 -33
-10 -49 6 -17 18 -17 21 12 67 25 42 61 77 77 77 3 0 16 -7 28 -16z m246 -76
c22 -7 42 -19 44 -27 4 -11 -7 -13 -59 -9 -67 6 -142 35 -132 51 7 12 94 3
147 -15z m129 -30 c-12 -81 -59 -163 -93 -163 -34 0 -35 19 -3 52 15 16 41 57
57 91 16 34 33 62 38 62 5 0 5 -19 1 -42z m665 -113 c5 -36 -19 -55 -67 -54
-20 0 -30 3 -22 6 9 4 10 8 2 12 -7 5 -1 18 17 39 34 41 66 40 70 -3z m-1361
-1044 c37 -23 66 -53 98 -99 24 -37 164 -211 310 -386 146 -175 279 -338 295
-361 23 -34 37 -44 68 -49 21 -3 91 -28 154 -55 63 -27 144 -55 179 -61 35 -6
74 -13 85 -16 17 -3 23 -14 28 -56 4 -29 20 -118 36 -198 50 -246 115 -419
204 -536 42 -57 220 -232 305 -303 36 -29 41 -38 41 -75 0 -54 -19 -169 -29
-179 -5 -5 -66 -4 -137 2 -157 13 -247 41 -479 151 -61 29 -238 67 -435 92
-120 15 -494 15 -670 -1 -366 -33 -588 -81 -655 -142 -15 -13 -60 -24 -169
-39 -82 -12 -155 -19 -162 -16 -8 3 -14 16 -14 28 0 42 -39 173 -54 184 -14
10 -12 21 14 92 85 233 160 672 160 932 -1 102 -13 229 -25 261 -5 13 2 18 30
22 54 9 120 67 141 124 9 27 36 67 58 91 48 50 196 154 261 183 54 24 61 34
120 169 25 58 52 108 59 112 7 4 30 48 51 97 37 86 40 90 59 77 12 -7 45 -28
73 -45z m1848 -156 c17 -12 129 -93 250 -180 845 -607 2138 -1551 2153 -1573
15 -20 230 -374 430 -706 7 -12 1 -9 -201 127 -98 65 -182 124 -187 130 -121
148 -221 252 -292 303 -46 32 -186 133 -313 225 -126 91 -385 274 -575 407
-190 133 -473 333 -628 444 l-284 203 -49 149 c-66 203 -80 228 -159 278 -122
78 -159 110 -166 142 -3 17 -13 44 -21 60 -16 31 -12 30 42 -9z m130 -436 c11
-17 -1 -21 -15 -4 -8 9 -8 15 -2 15 6 0 14 -5 17 -11z m-2845 -239 c0 -5 -2
-10 -4 -10 -3 0 -8 5 -11 10 -3 6 -1 10 4 10 6 0 11 -4 11 -10z m3300 -395
c85 -59 195 -132 243 -163 107 -69 1160 -778 1237 -833 48 -34 156 -79 300
-125 42 -14 445 -273 436 -281 -2 -2 -197 39 -433 91 l-429 95 -678 443
c-1091 713 -1138 744 -1147 759 -12 19 -11 59 0 59 6 0 12 -4 15 -9 3 -4 23
-11 43 -14 40 -7 141 -64 257 -147 38 -27 74 -46 79 -43 24 15 -52 252 -84
260 -10 3 -20 11 -23 19 -8 20 2 14 184 -111z m-263 -181 c81 -53 180 -117
218 -142 39 -25 366 -239 729 -475 362 -236 677 -436 700 -444 41 -13 41 -13
-34 -8 -41 2 -205 9 -365 15 -159 5 -335 12 -390 15 -55 2 -225 8 -378 13
-218 7 -281 12 -291 23 -7 8 -39 70 -70 139 -32 69 -60 127 -62 129 -3 3 -10
-1 -16 -7 -16 -16 -28 -15 -28 3 0 8 -4 15 -9 15 -12 0 -105 144 -130 201 -21
47 -30 111 -56 412 -9 98 -19 192 -22 209 l-6 30 31 -16 c17 -9 98 -60 179
-112z m-3642 -744 c-3 -5 -11 -10 -16 -10 -6 0 -7 5 -4 10 3 6 11 10 16 10 6
0 7 -4 4 -10z m5509 -365 l51 -13 -65 5 c-36 3 -76 12 -90 19 -24 14 -23 14
14 8 21 -4 61 -12 90 -19z"/>
<path d="M7812 9456 c-37 -13 -112 -113 -112 -149 0 -11 3 -18 6 -15 3 4 18 3
33 -2 16 -4 34 -4 42 0 16 11 15 80 -2 90 -19 12 32 57 75 65 20 4 33 11 30
16 -7 12 -31 10 -72 -5z"/>
<path d="M7852 9316 c-37 -108 -106 -263 -129 -289 -9 -9 -14 -19 -11 -22 7
-8 59 35 53 44 -2 5 9 34 26 64 49 92 116 297 97 297 -3 0 -19 -42 -36 -94z"/>
<path d="M6380 9051 c0 -5 7 -15 17 -22 15 -13 15 -12 4 9 -12 23 -21 28 -21
13z"/>
<path d="M6950 8995 c1 -5 12 -30 26 -55 13 -25 22 -34 18 -21 -7 28 -44 92
-44 76z"/>
<path d="M6707 8763 c-13 -12 -7 -33 8 -33 8 0 15 9 15 20 0 20 -11 26 -23 13z"/>
<path d="M5535 8600 c3 -5 8 -10 11 -10 2 0 4 5 4 10 0 6 -5 10 -11 10 -5 0
-7 -4 -4 -10z"/>
<path d="M5802 8472 c-49 -7 -36 -58 23 -86 60 -29 144 1 119 42 -13 19 -109
49 -142 44z"/>
<path d="M6030 8239 c-47 -5 -41 -6 39 -7 52 -1 92 0 90 3 -8 8 -73 10 -129 4z"/>
<path d="M9191 7624 c0 -11 3 -14 6 -6 3 7 2 16 -1 19 -3 4 -6 -2 -5 -13z"/>
</g>
</svg>
